<svg width="631" height="236" viewBox="0 0 631 236" fill="none" xmlns="http://www.w3.org/2000/svg">
<path d="M253.446 103.607C245.506 103.607 239.038 101.854 234.04 98.3478C229.043 94.8414 225.98 89.9044 224.851 83.5365L237.788 81.5415C238.594 84.927 240.448 87.6071 243.35 89.5819C246.292 91.5165 249.94 92.4837 254.292 92.4837C258.242 92.4837 261.325 91.6777 263.542 90.0656C265.799 88.4534 266.927 86.2368 266.927 83.4156C266.927 81.7632 266.524 80.4332 265.718 79.4256C264.952 78.3778 263.32 77.3903 260.821 76.4634C258.323 75.5364 254.514 74.3878 249.395 73.0175C243.793 71.5666 239.34 70.0149 236.035 68.3625C232.771 66.6698 230.433 64.7151 229.022 62.4985C227.652 60.2415 226.967 57.5211 226.967 54.3371C226.967 50.3875 228.015 46.9416 230.111 43.9995C232.206 41.0574 235.148 38.7803 238.937 37.1682C242.766 35.5561 247.239 34.75 252.358 34.75C257.355 34.75 261.809 35.5359 265.718 37.1077C269.627 38.6795 272.791 40.9163 275.209 43.8181C277.628 46.6796 279.078 50.0449 279.562 53.914L266.625 56.2717C266.182 53.1281 264.711 50.6494 262.212 48.8358C259.713 47.0222 256.469 46.0348 252.479 45.8736C248.65 45.7124 245.547 46.3572 243.169 47.8081C240.791 49.2187 239.602 51.1734 239.602 53.6722C239.602 55.1231 240.045 56.3523 240.932 57.3599C241.859 58.3674 243.632 59.3347 246.252 60.2617C248.872 61.1886 252.741 62.2969 257.859 63.5866C263.34 64.9972 267.693 66.569 270.917 68.3021C274.141 69.9948 276.439 72.0301 277.809 74.4079C279.22 76.7455 279.925 79.5868 279.925 82.932C279.925 89.3804 277.567 94.4384 272.852 98.106C268.177 101.774 261.708 103.607 253.446 103.607Z" fill="white"/>
<path d="M314.279 103.607C309.765 103.607 305.976 102.882 302.913 101.431C299.85 99.98 297.352 98.0858 295.417 95.7482C293.523 93.3704 292.072 90.791 291.064 88.0101C290.057 85.2292 289.372 82.5088 289.009 79.8488C288.646 77.1888 288.465 74.8513 288.465 72.8361V36.5636H301.281V68.6648C301.281 71.2039 301.483 73.8235 301.886 76.5238C302.329 79.1838 303.135 81.6624 304.304 83.9597C305.513 86.2569 307.186 88.1109 309.322 89.5215C311.498 90.9321 314.319 91.6374 317.785 91.6374C320.042 91.6374 322.178 91.2746 324.193 90.5492C326.208 89.7834 327.962 88.5744 329.453 86.9219C330.984 85.2695 332.173 83.0932 333.02 80.3929C333.906 77.6926 334.35 74.4079 334.35 70.5389L342.209 73.5011C342.209 79.4256 341.1 84.665 338.884 89.2192C336.667 93.7331 333.483 97.2596 329.332 99.7987C325.181 102.338 320.163 103.607 314.279 103.607ZM335.861 101.854V82.9924H334.35V36.5636H347.105V101.854H335.861Z" fill="white"/>
<path d="M391.084 103.668C384.837 103.668 379.598 102.156 375.366 99.1337C371.134 96.0707 367.93 91.9396 365.754 86.7406C363.577 81.5415 362.489 75.6775 362.489 69.1484C362.489 62.6194 363.557 56.7553 365.693 51.5563C367.87 46.3572 371.053 42.2665 375.245 39.2841C379.477 36.2614 384.676 34.75 390.842 34.75C396.968 34.75 402.248 36.2614 406.681 39.2841C411.155 42.2665 414.601 46.3572 417.019 51.5563C419.437 56.715 420.646 62.5791 420.646 69.1484C420.646 75.6775 419.437 81.5617 417.019 86.801C414.641 92.0001 411.235 96.111 406.802 99.1337C402.409 102.156 397.17 103.668 391.084 103.668ZM360.373 130.872V36.5636H371.618V83.5365H373.069V130.872H360.373ZM389.331 92.2419C393.361 92.2419 396.686 91.2142 399.306 89.1587C401.966 87.1033 403.941 84.3426 405.23 80.8765C406.56 77.3702 407.225 73.4608 407.225 69.1484C407.225 64.8763 406.56 61.0073 405.23 57.5412C403.941 54.0752 401.946 51.3144 399.245 49.259C396.545 47.2036 393.099 46.1758 388.908 46.1758C384.958 46.1758 381.693 47.1431 379.114 49.0776C376.575 51.0122 374.681 53.7125 373.431 57.1785C372.222 60.6445 371.618 64.6345 371.618 69.1484C371.618 73.6623 372.222 77.6523 373.431 81.1183C374.64 84.5844 376.555 87.3048 379.174 89.2797C381.794 91.2545 385.18 92.2419 389.331 92.2419Z" fill="white"/>
<path d="M448.805 103.668C443.969 103.668 439.919 102.781 436.654 101.008C433.39 99.1941 430.911 96.8163 429.218 93.8742C427.566 90.8918 426.74 87.6272 426.74 84.0806C426.74 80.7758 427.324 77.874 428.493 75.3752C429.662 72.8764 431.395 70.7605 433.692 69.0275C435.989 67.2542 438.81 65.8234 442.155 64.7353C445.057 63.8889 448.342 63.1433 452.009 62.4985C455.677 61.8536 459.526 61.2491 463.556 60.6848C467.627 60.1206 471.657 59.5564 475.647 58.9921L471.053 61.5312C471.133 56.4127 470.045 52.6243 467.788 50.1658C465.571 47.667 461.743 46.4177 456.302 46.4177C452.876 46.4177 449.732 47.2237 446.871 48.8358C444.009 50.4076 442.014 53.0273 440.886 56.6949L429.097 53.0676C430.709 47.4655 433.772 43.0121 438.286 39.7072C442.841 36.4024 448.886 34.75 456.423 34.75C462.267 34.75 467.345 35.7576 471.657 37.7727C476.01 39.7475 479.194 42.8912 481.209 47.2036C482.257 49.3396 482.902 51.5966 483.143 53.9744C483.385 56.3523 483.506 58.9115 483.506 61.6521V101.854H472.322V86.9219L474.498 88.8565C471.798 93.854 468.352 97.582 464.161 100.04C460.01 102.459 454.891 103.668 448.805 103.668ZM451.042 93.3301C454.629 93.3301 457.712 92.7054 460.292 91.456C462.871 90.1663 464.947 88.534 466.518 86.5592C468.09 84.5844 469.118 82.5289 469.602 80.3929C470.287 78.4584 470.67 76.282 470.75 73.8638C470.871 71.4457 470.932 69.5111 470.932 68.0602L475.043 69.5716C471.053 70.1761 467.425 70.7202 464.161 71.2039C460.896 71.6875 457.934 72.1711 455.274 72.6548C452.654 73.0981 450.317 73.6422 448.261 74.287C446.528 74.8916 444.977 75.617 443.606 76.4634C442.276 77.3097 441.208 78.3375 440.402 79.5465C439.637 80.7556 439.254 82.2267 439.254 83.9597C439.254 85.6524 439.677 87.2242 440.523 88.6751C441.37 90.0857 442.659 91.2142 444.392 92.0605C446.125 92.9069 448.342 93.3301 451.042 93.3301Z" fill="white"/>
<path d="M256.278 215.015C247.597 215.015 240.544 213.062 235.119 209.156C229.694 205.249 226.395 199.759 225.223 192.684L241.239 190.21C242.064 193.683 243.886 196.417 246.708 198.413C249.529 200.41 253.088 201.408 257.385 201.408C261.161 201.408 264.069 200.67 266.109 199.195C268.192 197.676 269.234 195.614 269.234 193.01C269.234 191.404 268.843 190.123 268.062 189.169C267.324 188.17 265.675 187.215 263.114 186.304C260.553 185.393 256.625 184.242 251.33 182.853C245.427 181.291 240.74 179.62 237.267 177.84C233.795 176.018 231.3 173.869 229.78 171.395C228.261 168.921 227.502 165.926 227.502 162.411C227.502 158.027 228.652 154.208 230.952 150.952C233.253 147.697 236.465 145.201 240.588 143.465C244.711 141.686 249.572 140.796 255.171 140.796C260.64 140.796 265.479 141.642 269.69 143.335C273.943 145.028 277.372 147.437 279.976 150.562C282.58 153.687 284.186 157.354 284.794 161.564L268.778 164.429C268.387 161.434 267.02 159.069 264.676 157.333C262.376 155.596 259.294 154.62 255.432 154.403C251.742 154.186 248.769 154.75 246.512 156.096C244.255 157.398 243.127 159.242 243.127 161.629C243.127 162.975 243.583 164.125 244.494 165.08C245.406 166.035 247.228 166.99 249.963 167.945C252.741 168.899 256.864 170.071 262.333 171.46C267.932 172.893 272.402 174.542 275.744 176.408C279.13 178.231 281.56 180.423 283.036 182.984C284.555 185.544 285.315 188.648 285.315 192.294C285.315 199.368 282.732 204.924 277.567 208.96C272.446 212.997 265.349 215.015 256.278 215.015Z" fill="white"/>
<path d="M336.879 213.062C332.235 213.93 327.678 214.299 323.207 214.169C318.78 214.082 314.809 213.279 311.293 211.76C307.778 210.197 305.108 207.745 303.285 204.403C301.68 201.365 300.833 198.262 300.746 195.093C300.66 191.925 300.616 188.344 300.616 184.351V123.218H316.241V183.439C316.241 186.261 316.263 188.735 316.306 190.861C316.393 192.988 316.849 194.724 317.674 196.07C319.236 198.674 321.732 200.128 325.161 200.432C328.589 200.736 332.496 200.562 336.879 199.911V213.062ZM287.856 155.054V142.749H336.879V155.054H287.856Z" fill="white"/>
<path d="M367.754 215.015C362.676 215.015 358.379 214.06 354.863 212.151C351.348 210.197 348.679 207.615 346.856 204.403C345.076 201.191 344.186 197.654 344.186 193.791C344.186 190.406 344.751 187.367 345.879 184.676C347.008 181.942 348.744 179.598 351.087 177.645C353.431 175.649 356.469 174.021 360.202 172.762C363.023 171.851 366.322 171.026 370.098 170.288C373.917 169.55 378.041 168.878 382.468 168.27C386.938 167.619 391.604 166.925 396.465 166.187L390.866 169.377C390.91 164.516 389.825 160.935 387.611 158.635C385.398 156.334 381.665 155.184 376.413 155.184C373.245 155.184 370.185 155.922 367.233 157.398C364.282 158.873 362.22 161.412 361.048 165.015L346.725 160.523C348.462 154.576 351.76 149.802 356.621 146.2C361.526 142.597 368.123 140.796 376.413 140.796C382.663 140.796 388.154 141.816 392.885 143.856C397.659 145.896 401.196 149.238 403.497 153.882C404.755 156.356 405.515 158.895 405.775 161.499C406.036 164.06 406.166 166.859 406.166 169.898V213.062H392.429V197.828L394.707 200.301C391.539 205.38 387.828 209.112 383.575 211.499C379.364 213.843 374.091 215.015 367.754 215.015ZM370.879 202.515C374.438 202.515 377.476 201.886 379.994 200.627C382.511 199.368 384.508 197.828 385.983 196.005C387.503 194.182 388.523 192.467 389.043 190.861C389.868 188.865 390.324 186.586 390.411 184.025C390.541 181.421 390.606 179.316 390.606 177.71L395.424 179.143C390.693 179.88 386.634 180.531 383.249 181.096C379.864 181.66 376.956 182.202 374.525 182.723C372.094 183.201 369.946 183.743 368.08 184.351C366.257 185.002 364.716 185.761 363.457 186.63C362.199 187.498 361.222 188.496 360.528 189.624C359.877 190.753 359.551 192.077 359.551 193.596C359.551 195.332 359.985 196.873 360.853 198.218C361.721 199.52 362.98 200.562 364.629 201.343C366.322 202.124 368.405 202.515 370.879 202.515Z" fill="white"/>
<path d="M419.209 213.062V142.749H433.076V159.872L431.384 157.658C432.252 155.314 433.402 153.188 434.834 151.278C436.31 149.325 438.068 147.719 440.108 146.46C441.844 145.288 443.753 144.377 445.837 143.726C447.964 143.031 450.286 142.879 452.5 142.749C455 142.749 457.5 142.749 459.498 142.749V155.054C454 155.054 453 154.854 450 155.354C447 155.854 445.5 156.774 443.5 157.854C441.5 158.934 440.5 159.854 438.5 163.354C436.5 166.854 436.592 167.489 435.941 169.833C435.29 172.133 434.964 174.629 434.964 177.32V213.062H419.209Z" fill="white"/>
<path d="M508.521 213.062C503.877 213.93 499.32 214.299 494.849 214.169C490.422 214.082 486.451 213.279 482.935 211.76C479.42 210.197 476.75 207.745 474.927 204.403C473.321 201.365 472.475 198.262 472.388 195.093C472.301 191.925 472.258 188.344 472.258 184.351V123.218H487.883V183.439C487.883 186.261 487.905 188.735 487.948 190.861C488.035 192.988 488.491 194.724 489.315 196.07C490.878 198.674 493.374 200.128 496.802 200.432C500.231 200.736 504.138 200.562 508.521 199.911V213.062ZM459.498 155.054V142.749H508.521V155.054H459.498Z" fill="white"/>
<path d="M548.14 215.015C541.022 215.015 534.772 213.474 529.39 210.393C524.008 207.311 519.798 203.036 516.76 197.567C513.765 192.098 512.268 185.805 512.268 178.687C512.268 171.004 513.743 164.342 516.695 158.7C519.646 153.014 523.748 148.609 529 145.484C534.251 142.358 540.328 140.796 547.229 140.796C554.521 140.796 560.706 142.51 565.784 145.939C570.905 149.325 574.703 154.121 577.177 160.327C579.651 166.534 580.584 173.847 579.977 182.268H564.417V176.538C564.373 168.899 563.028 163.322 560.38 159.807C557.732 156.291 553.566 154.533 547.88 154.533C541.456 154.533 536.682 156.53 533.557 160.523C530.432 164.472 528.869 170.267 528.869 177.906C528.869 185.024 530.432 190.536 533.557 194.442C536.682 198.348 541.239 200.301 547.229 200.301C551.092 200.301 554.412 199.455 557.19 197.762C560.011 196.026 562.181 193.531 563.7 190.275L579.195 194.963C576.504 201.3 572.338 206.226 566.695 209.742C561.096 213.257 554.911 215.015 548.14 215.015ZM523.922 182.268V170.419H572.294V182.268H523.922Z" fill="white"/>
<path d="M590.597 213.062V142.749H604.464V159.872L602.771 157.658C603.639 155.314 604.789 153.188 606.222 151.278C607.697 149.325 609.455 147.719 611.495 146.46C613.231 145.288 615.141 144.377 617.224 143.726C619.351 143.031 621.521 142.619 623.735 142.489C625.948 142.315 628.097 142.402 630.18 142.749V157.398C628.097 156.79 625.688 156.595 622.954 156.812C620.263 157.029 617.832 157.788 615.662 159.09C613.492 160.262 611.712 161.76 610.323 163.583C608.978 165.405 607.98 167.489 607.329 169.833C606.677 172.133 606.352 174.629 606.352 177.32V213.062H590.597Z" fill="white"/>
<path d="M95.7907 166.232L68.7734 227.157M102.266 210.956L95.365 226.488M55.6706 190.252L48.7694 205.784M64.8725 169.543L46.752 161.491M46.752 161.491C46.752 161.491 7.7812 168.973 7.49269 162.645C7.20417 156.318 18.1315 131.726 24.7459 123.816C31.3603 115.906 70.9066 107.13 70.9066 107.13M46.752 161.491L70.9066 107.13M70.9066 107.13C70.9066 107.13 98.7288 59.0474 118.356 35.2215C137.984 11.3955 155.894 4.73319 164.307 8.47134C172.72 12.2095 179.833 29.9907 175.306 60.5262C170.779 91.0618 153.743 143.937 153.743 143.937M111.468 190.247L129.589 198.298M129.589 198.298C129.589 198.298 150.156 232.235 155.045 228.208C159.935 224.181 170.861 199.588 172.299 189.378C173.736 179.168 153.743 143.937 153.743 143.937M129.589 198.298L153.743 143.937M138.712 106.26C135.218 114.124 126.011 117.666 118.148 114.172C110.285 110.678 106.743 101.471 110.237 93.608C113.73 85.7448 122.937 82.2028 130.8 85.6967C138.663 89.1905 142.205 98.3972 138.712 106.26Z" stroke="url(#paint0_linear_747_2)" stroke-width="14.1634" stroke-linecap="round"/>
<defs>
<linearGradient id="paint0_linear_747_2" x1="64.1781" y1="233.876" x2="20.681" y2="22.6464" gradientUnits="userSpaceOnUse">
<stop stop-color="#6E67FF"/>
<stop offset="0.828125" stop-color="#F88C5E"/>
</linearGradient>
</defs>
</svg>
